<?xml version="1.0" encoding="utf-8"?>
<!-- Generator: Adobe Illustrator 19.1.1, SVG Export Plug-In . SVG Version: 6.00 Build 0)  -->
<svg version="1.1" id="Layer_1" xmlns="http://www.w3.org/2000/svg" xmlns:xlink="http://www.w3.org/1999/xlink" x="0px" y="0px"
	 viewBox="-95 234 420 325" style="enable-background:new -95 234 420 325;" xml:space="preserve">
<style type="text/css">
	.st0{fill:#FFFFFF;}
</style>
<g id="WEB_DESIGN">
</g>
<g id="APP_DESIGN">
	<g>
		<path class="st0" d="M29,376h-85v8h85V376z M-4,382h-19v-4h19V382z"/>
		<rect x="-48" y="451" class="st0" width="69" height="33"/>
		<path class="st0" d="M275,383.5c2.8,0,5-2.2,5-5s-2.2-5-5-5c-2.8,0-5,2.2-5,5S272.2,383.5,275,383.5z"/>
		<rect x="61" y="409" class="st0" width="84" height="49"/>
		<path class="st0" d="M29,361c0-1.1-0.9-2-2-2h-81c-1.1,0-2,0.9-2,2v11h85V361z M-13.5,367c-1.1,0-2-0.9-2-2s0.9-2,2-2s2,0.9,2,2
			S-12.4,367-13.5,367z"/>
		<rect x="160" y="409" class="st0" width="84" height="49"/>
		<path class="st0" d="M-10,497c0-1.6-1.3-3-3-3s-3,1.3-3,3s1.3,3,3,3S-10,498.7-10,497z"/>
		<path class="st0" d="M29,484v-96h-85v96h4v-37h77v37H29z M-52,442v-49h77v49H-52z"/>
		<path class="st0" d="M-15,538v-32h42c1.1,0,2-0.9,2-2v-16h-85v16c0,1.1,0.9,2,2,2h32v4h-32c-3.3,0-6-2.7-6-6V361c0-3.3,2.7-6,6-6
			h71v-66c0-3.3,2.8-6,6.2-6H113v-49H-95v325h208v-21H-15z M-20,497c0-3.9,3.1-7,7-7s7,3.1,7,7s-3.1,7-7,7S-20,500.9-20,497z"/>
		<rect x="-48" y="397" class="st0" width="69" height="29"/>
		<rect x="-48" y="430" class="st0" width="69" height="8"/>
		<rect x="61" y="381" class="st0" width="84" height="11"/>
		<rect x="61" y="333" class="st0" width="84" height="44"/>
		<rect x="160" y="333" class="st0" width="84" height="44"/>
		<path class="st0" d="M57,405h92v53h7v-53h92v53h12V317H45v141h12V405z M156,329h92v67h-92V329z M57,329h92v67H57V329z"/>
		<path class="st0" d="M117,234v53H23.2c-1.2,0-2.2,1-2.2,2v66h6c3.3,0,6,2.7,6,6v109h251c1.1,0,2-0.9,2-2V289c0-1.1-0.9-2-2-2H124
			v-4h160c3.3,0,6,2.7,6,6v179c0,3.3-2.7,6-6,6H33v30c0,3.3-2.7,6-6,6h-38v24h128v25h208V234H117z M275,369.5c5,0,9,4,9,9s-4,9-9,9
			s-9-4-9-9S270,369.5,275,369.5z M264,295v167H41V295H264z"/>
		<rect x="160" y="381" class="st0" width="84" height="11"/>
		<path class="st0" d="M260,299H45v14h215V299L260,299z M166,308h-26v-4h26V308z"/>
	</g>
</g>
<g id="ECOMMERCE">
</g>
<g id="WORDPRESS">
</g>
</svg>
