<?xml version="1.0" encoding="utf-8"?>
<!-- Generator: Adobe Illustrator 19.1.1, SVG Export Plug-In . SVG Version: 6.00 Build 0)  -->
<svg version="1.1" id="Layer_1" xmlns="http://www.w3.org/2000/svg" xmlns:xlink="http://www.w3.org/1999/xlink" x="0px" y="0px"
	 viewBox="-95 234 420 325" style="enable-background:new -95 234 420 325;" xml:space="preserve">
<style type="text/css">
	.st0{fill:#FFFFFF;}
</style>
<g id="WEB_DESIGN">
</g>
<g id="APP_DESIGN">
</g>
<g id="ECOMMERCE">
</g>
<g id="WORDPRESS">
	<g>
		<path class="st0" d="M-60,505c0,1.1,0.9,2,2,2h46V328h-48V505z"/>
		<path class="st0" d="M290,304H-60v20h350V304z M135.9,316H93.2v-4h42.7V316z"/>
		<path class="st0" d="M119.5,461.4l1.1-0.1l7.3,9l11.4-4.2l-0.2-11.6l0.9-0.6c2.4-1.7,4.8-3.6,6.9-5.8l0.8-0.8l11.4,2.2l6.1-10.5
			l-7.6-8.8l0.3-1c0.8-2.9,1.3-5.8,1.5-8.8l0.1-1.1l10.2-5.6l-2.1-12l-11.5-1.8l-0.4-1c-1.2-2.7-2.7-5.3-4.5-7.8l-0.6-0.9l4.2-10.8
			l-9.3-7.8l-9.9,6l-1-0.5c-2.7-1.3-5.5-2.3-8.4-3.1l-1.1-0.3l-3.8-11h-12.2l-3.8,11l-1.1,0.3c-2.9,0.7-5.7,1.8-8.4,3.1l-1,0.5
			l-9.9-6l-9.3,7.8l4.2,10.8l-0.6,0.9c-1.7,2.4-3.3,5-4.5,7.8l-0.4,1l-11.5,1.8l-2.1,12l10.2,5.6l0.1,1.1c0.2,3,0.7,6,1.5,8.8l0.3,1
			l-7.6,8.8l6.1,10.5l11.4-2.2l0.8,0.8c2.1,2.2,4.4,4.1,6.9,5.8l0.9,0.6l-0.2,11.6l11.4,4.2l7.3-9l1.1,0.1
			C113.5,461.7,116.5,461.7,119.5,461.4z M98,417c0-9.4,7.6-17,17-17s17,7.6,17,17s-7.6,17-17,17S98,426.4,98,417z"/>
		<path class="st0" d="M288,507c1.1,0,2-0.9,2-2V328h-49v179H288z"/>
		<path class="st0" d="M237,507V328H-8v179h114v4H-58c-3.3,0-6-2.7-6-6V291c0-3.3,2.7-6,6-6h171v-51H-95v325h208v-52H237z
			 M111.2,465.5l-6,7.4c-1,1.3-2.8,1.8-4.3,1.2l-11.6-4.2c-1.6-0.6-2.6-2.1-2.5-3.7l0.2-9.5c-2-1.5-4-3.1-5.8-4.9l-9.4,1.8
			c-1.6,0.3-3.3-0.5-4.1-1.9L61.5,441c-0.8-1.4-0.7-3.2,0.4-4.5l6.3-7.2c-0.6-2.4-1.1-5-1.3-7.5l-8.4-4.6c-1.4-0.8-2.2-2.4-1.9-4.1
			l2.1-12.1c0.3-1.6,1.6-2.9,3.2-3.2l9.4-1.5c1.1-2.3,2.4-4.5,3.8-6.6l-3.4-8.9c-0.6-1.5-0.1-3.3,1.1-4.4l9.4-7.9
			c1.2-1,3.1-1.2,4.5-0.4l8.2,4.9c2.3-1.1,4.7-1.9,7.2-2.6l3.1-9c0.5-1.6,2-2.6,3.7-2.6h12.3c1.7,0,3.1,1.1,3.7,2.6l3.1,9
			c2.5,0.7,4.8,1.5,7.2,2.6l8.2-4.9c1.4-0.8,3.3-0.7,4.5,0.4l9.4,7.9c1.3,1.1,1.7,2.8,1.1,4.4l-3.4,8.9c1.4,2.1,2.7,4.3,3.8,6.6
			l9.4,1.5c1.6,0.3,2.9,1.5,3.2,3.2l2.1,12.1c0.3,1.6-0.5,3.3-1.9,4.1l-8.4,4.6c-0.2,2.5-0.7,5-1.3,7.5l6.3,7.2
			c1.1,1.2,1.3,3,0.4,4.5l-6.2,10.7c-0.7,1.2-2,1.9-3.4,1.9c-0.2,0-0.5,0-0.7-0.1l-9.4-1.8c-1.8,1.8-3.8,3.4-5.8,4.9l0.2,9.6
			c0,1.7-1,3.1-2.5,3.7l-11.6,4.2c-0.4,0.2-0.9,0.2-1.3,0.2c-1.2,0-2.3-0.5-3-1.4l-6-7.4C116.3,465.7,113.7,465.7,111.2,465.5z"/>
		<path class="st0" d="M117,234v55H-58c-1.1,0-2,0.9-2,2v9h350v-9c0-1.1-0.9-2-2-2H124v-4h164c3.3,0,6,2.7,6,6v214c0,3.3-2.7,6-6,6
			H117v48h208V234H117z M-52,297c-1.1,0-2-0.9-2-2s0.9-2,2-2s2,0.9,2,2S-50.9,297-52,297z M-44,297c-1.1,0-2-0.9-2-2s0.9-2,2-2
			s2,0.9,2,2S-42.9,297-44,297z M-36,297c-1.1,0-2-0.9-2-2s0.9-2,2-2s2,0.9,2,2S-34.9,297-36,297z"/>
		<path class="st0" d="M128,417c0-7.2-5.8-13-13-13s-13,5.8-13,13s5.8,13,13,13S128,424.2,128,417z"/>
	</g>
</g>
</svg>
