<?xml version="1.0" encoding="utf-8"?>
<!-- Generator: Adobe Illustrator 19.1.1, SVG Export Plug-In . SVG Version: 6.00 Build 0)  -->
<svg version="1.1" id="Layer_1" xmlns="http://www.w3.org/2000/svg" xmlns:xlink="http://www.w3.org/1999/xlink" x="0px" y="0px"
	 viewBox="-277 372 56 50" style="enable-background:new -277 372 56 50;" xml:space="preserve">
<style type="text/css">
	.st0{fill:#FFFFFF;}
</style>
<g>
	<path class="st0" d="M-247,406c-0.6,0-1,0.4-1,1s0.4,1,1,1s1-0.4,1-1S-246.4,406-247,406z"/>
	<path class="st0" d="M-257,406c-0.6,0-1,0.4-1,1s0.4,1,1,1s1-0.4,1-1S-256.4,406-257,406z"/>
	<path class="st0" d="M-249,374c-12.7,0-23,10.3-23,23s10.3,23,23,23c12.7,0,23-10.3,23-23S-236.3,374-249,374z M-257,410
		c-1.7,0-3-1.3-3-3s1.3-3,3-3c1.7,0,3,1.3,3,3S-255.3,410-257,410z M-247,410c-1.7,0-3-1.3-3-3s1.3-3,3-3s3,1.3,3,3
		S-245.3,410-247,410z M-237,387h-2.3l-4.7,15.3c-0.1,0.4-0.5,0.7-1,0.7h-14c-0.5,0-0.8-0.3-1-0.7l-3-11c-0.1-0.3,0-0.6,0.2-0.9
		c0.2-0.2,0.5-0.4,0.8-0.4h16c0.6,0,1,0.4,1,1s-0.4,1-1,1h-14.7l2.5,9h12.5l4.7-15.3c0.1-0.4,0.5-0.7,1-0.7h3c0.6,0,1,0.4,1,1
		S-236.4,387-237,387z"/>
	<path class="st0" d="M-277,372v50h56v-50H-277z M-249,422c-13.8,0-25-11.2-25-25s11.2-25,25-25c13.8,0,25,11.2,25,25
		S-235.2,422-249,422z"/>
</g>
</svg>
