<?xml version="1.0" encoding="utf-8"?>
<!-- Generator: Adobe Illustrator 19.1.1, SVG Export Plug-In . SVG Version: 6.00 Build 0)  -->
<svg version="1.1" id="Layer_1" xmlns="http://www.w3.org/2000/svg" xmlns:xlink="http://www.w3.org/1999/xlink" x="0px" y="0px"
	 viewBox="-95 234 420 325" style="enable-background:new -95 234 420 325;" xml:space="preserve">
<style type="text/css">
	.st0{fill:#FFFFFF;}
</style>
<g id="WEB_DESIGN">
</g>
<g id="APP_DESIGN">
</g>
<g id="ECOMMERCE">
	<g>
		<circle class="st0" cx="115" cy="444" r="2"/>
		<circle class="st0" cx="73" cy="459" r="2"/>
		<circle class="st0" cx="157" cy="457" r="2"/>
		<circle class="st0" cx="31" cy="467" r="2"/>
		<path class="st0" d="M-14,501h258V397H-14V501z M199,416c3.3,0,6,2.7,6,6s-2.7,6-6,6s-6-2.7-6-6S195.7,416,199,416z M191.7,425.5
			l2.6,3.1l-30,25l-2.6-3.1L191.7,425.5z M157,451c3.3,0,6,2.7,6,6s-2.7,6-6,6s-6-2.7-6-6S153.7,451,157,451z M122.7,443.1l27,10
			l-1.4,3.8l-27-10L122.7,443.1z M115,438c3.3,0,6,2.7,6,6s-2.7,6-6,6s-6-2.7-6-6S111.7,438,115,438z M107.4,445.1l1.2,3.8l-28,9
			l-1.2-3.8L107.4,445.1z M73,453c3.3,0,6,2.7,6,6s-2.7,6-6,6s-6-2.7-6-6S69.7,453,73,453z M64.7,459l0.6,4l-26,4l-0.6-4L64.7,459z
			 M31,461c3.3,0,6,2.7,6,6s-2.7,6-6,6s-6-2.7-6-6S27.7,461,31,461z"/>
		<circle class="st0" cx="199" cy="422" r="2"/>
		<rect x="131" y="313" class="st0" width="20" height="3"/>
		<rect x="79" y="313" class="st0" width="20" height="3"/>
		<rect x="112" y="330" class="st0" width="6" height="2"/>
		<rect x="179" y="377" class="st0" width="56" height="6"/>
		<polygon class="st0" points="127,310 103,310 103,326 127,326 		"/>
		<path class="st0" d="M127,306c1.9,0,3.4,1.3,3.9,3H151v-5H79v5h20.1c0.4-1.7,2-3,3.9-3H127z"/>
		<polygon class="st0" points="127,328 127,326 127,326 		"/>
		<path class="st0" d="M-14,364h258v-11H-14V364z M10,356c1.1,0,2,0.9,2,2s-0.9,2-2,2s-2-0.9-2-2S8.9,356,10,356z M2,356
			c1.1,0,2,0.9,2,2s-0.9,2-2,2s-2-0.9-2-2S0.9,356,2,356z M-6,356c1.1,0,2,0.9,2,2s-0.9,2-2,2s-2-0.9-2-2S-7.1,356-6,356z"/>
		<path class="st0" d="M252.2,336H-22.2c-1.5,0-2.8,1.2-2.8,2.7V501h7V349h266v152h7V338.7C255,337.2,253.7,336,252.2,336z"/>
		<path class="st0" d="M-14,393h258v-25H-14V393z M175,373h64v14h-64V373z M1,370.5c5.5,0,10,4.5,10,10s-4.5,10-10,10s-10-4.5-10-10
			S-4.5,370.5,1,370.5z"/>
		<rect x="87" y="288" class="st0" width="6" height="4"/>
		<path class="st0" d="M117,234v42h-4v-42H-95v325h208v-40h4v40h208V234H117z M122,291h24v4h-24V291z M135,289v-4h11v4H135z
			 M301,511c0,4.4-3.6,8-8,8H113v-4h180c2.2,0,4-1.8,4-4v-6H-67v6c0,2.2,1.8,4,4,4h170v4H-63c-4.4,0-8-3.6-8-8v-10h42V338.7
			c0-3.6,3.1-6.7,6.8-6.7H108v-2h-5c-2.2,0-4-1.8-4-4v-6H79c-2.2,0-4-1.8-4-4v-36c0-2.2,1.8-4,4-4h38v4H79v20h72v-20h-27v-4h27
			c2.2,0,4,1.8,4,4v36c0,2.2-1.8,4-4,4h-20v6c0,2.2-1.8,4-4,4h-5v2h130.2c3.7,0,6.8,3,6.8,6.7V501h42V511z M97,284v12H83v-12H97z"/>
		<path class="st0" d="M1,386.5c3.3,0,6-2.7,6-6s-2.7-6-6-6s-6,2.7-6,6S-2.3,386.5,1,386.5z"/>
	</g>
</g>
<g id="WORDPRESS">
</g>
</svg>
