<?xml version="1.0" encoding="utf-8"?>
<!-- Generator: Adobe Illustrator 19.1.1, SVG Export Plug-In . SVG Version: 6.00 Build 0)  -->
<svg version="1.1" id="Layer_1" xmlns="http://www.w3.org/2000/svg" xmlns:xlink="http://www.w3.org/1999/xlink" x="0px" y="0px"
	 viewBox="-277 372 56 50" style="enable-background:new -277 372 56 50;" xml:space="preserve">
<style type="text/css">
	.st0{fill:#FFFFFF;}
</style>
<g>
	<circle class="st0" cx="-249" cy="397" r="2"/>
	<path class="st0" d="M-249,374c-12.7,0-23,10.3-23,23s10.3,23,23,23c12.7,0,23-10.3,23-23S-236.3,374-249,374z M-234.5,397.6
		l-1.9,1c-0.1,0.5-0.1,1-0.3,1.4l1.4,1.6c0.4,0.5,0.5,1.2,0.2,1.7l-1.6,2.7c-0.3,0.5-0.8,0.7-1.3,0.7h-0.3l-2.1-0.4
		c-0.4,0.3-0.7,0.7-1.1,0.9v2.2c0,0.6-0.4,1.2-1,1.4l-2.8,1.2c-0.2,0.1-0.3,0.1-0.5,0.1c-0.4,0-0.9-0.2-1.1-0.5l-1.4-1.7
		c-0.5,0-1,0-1.5,0l-1.4,1.7c-0.4,0.5-1.1,0.7-1.6,0.5l-2.9-1.1c-0.6-0.2-1-0.8-1-1.4v-2.2c-0.4-0.3-0.8-0.6-1.1-0.9l-2.4,0.4
		c-0.5,0-1-0.3-1.3-0.7l-1.5-2.8c-0.3-0.5-0.2-1.2,0.2-1.7l1.4-1.6c-0.1-0.5-0.2-1-0.3-1.4l-1.9-1c-0.5-0.3-0.8-0.9-0.7-1.5l0.5-3.1
		c0.1-0.6,0.6-1.1,1.2-1.2l2.1-0.3c0.2-0.4,0.5-0.9,0.7-1.3l-0.8-2c-0.2-0.6-0.1-1.3,0.4-1.7l2.4-2c0.5-0.4,1.2-0.4,1.7-0.1l1.8,1.1
		c0.5-0.2,0.9-0.4,1.4-0.5l0.7-2c0.2-0.6,0.8-1,1.4-1h3.1c0.6,0,1.2,0.4,1.4,1l0.7,2c0.5,0.1,0.9,0.3,1.4,0.5l1.8-1.1
		c0.5-0.3,1.2-0.3,1.7,0.1l2.4,2c0.5,0.4,0.7,1.1,0.4,1.7l-0.8,2c0.3,0.4,0.5,0.8,0.7,1.3l2.1,0.3c0.6,0.1,1.1,0.6,1.2,1.2l0.5,3.1
		C-233.6,396.7-233.9,397.3-234.5,397.6z"/>
	<path class="st0" d="M-239,393.2l-0.2-0.5c-0.3-0.7-0.7-1.3-1.1-1.9l-0.3-0.4l1-2.7l-1.8-1.5l-2.4,1.5l-0.5-0.2
		c-0.6-0.3-1.3-0.6-2-0.7l-0.5-0.1l-0.9-2.7h-2.4l-0.9,2.7l-0.5,0.1c-0.7,0.2-1.4,0.4-2,0.7l-0.5,0.2l-2.4-1.5l-1.8,1.5l1,2.7
		l-0.3,0.4c-0.4,0.6-0.8,1.2-1.1,1.9l-0.4,0.5l-2.8,0.4l-0.4,2.4l2.5,1.4v0.5c0.1,0.7,0.2,1.4,0.4,2.1l0.1,0.5l-1.8,2.2l1.2,2
		l2.8-0.5l0.4,0.4c0.5,0.5,1.1,1,1.7,1.4l0.4,0.3l-0.1,2.8l2.2,0.8l1.8-2.2l0.5,0.1c0.7,0.1,1.5,0.1,2.2,0l0.5-0.1l1.8,2.2l2.2-0.8
		l-0.1-2.8l0.5-0.3c0.6-0.4,1.1-0.9,1.7-1.4l0.4-0.4l2.8,0.5l1.2-2l-1.9-2.1l0.1-0.5c0.2-0.7,0.3-1.4,0.4-2.1v-0.5l2.5-1.4l-0.4-2.3
		L-239,393.2z M-249,401c-2.2,0-4-1.8-4-4s1.8-4,4-4s4,1.8,4,4S-246.8,401-249,401z"/>
	<path class="st0" d="M-277,372v50h56v-50H-277z M-249,422c-13.8,0-25-11.2-25-25s11.2-25,25-25c13.8,0,25,11.2,25,25
		S-235.2,422-249,422z"/>
</g>
</svg>
