<?xml version="1.0" encoding="utf-8"?>
<!-- Generator: Adobe Illustrator 19.1.1, SVG Export Plug-In . SVG Version: 6.00 Build 0)  -->
<svg version="1.1" id="Layer_1" xmlns="http://www.w3.org/2000/svg" xmlns:xlink="http://www.w3.org/1999/xlink" x="0px" y="0px"
	 viewBox="-277 372 56 50" style="enable-background:new -277 372 56 50;" xml:space="preserve">
<style type="text/css">
	.st0{fill:#FFFFFF;}
</style>
<g>
	<rect x="-257" y="390" class="st0" width="17" height="8"/>
	<path class="st0" d="M-249,374c-12.7,0-23,10.3-23,23s10.3,23,23,23c12.7,0,23-10.3,23-23S-236.3,374-249,374z M-234,402
		c0,1.1-0.9,2-2,2h-8v3h2v2h-13v-2h2v-3h-8c-1.1,0-2-0.9-2-2v-16c0-1.1,0.9-2,2-2h25c1.1,0,2,0.9,2,2V402z"/>
	<rect x="-251" y="404" class="st0" width="5" height="3"/>
	<path class="st0" d="M-261,402h25v-16h-25V402z M-259,388h21v12h-21V388z"/>
	<path class="st0" d="M-277,372v50h56v-50H-277z M-249,422c-13.8,0-25-11.2-25-25s11.2-25,25-25c13.8,0,25,11.2,25,25
		S-235.2,422-249,422z"/>
</g>
</svg>
