<?xml version="1.0" encoding="utf-8"?>
<!-- Generator: Adobe Illustrator 19.1.1, SVG Export Plug-In . SVG Version: 6.00 Build 0)  -->
<svg version="1.1" id="Layer_1" xmlns="http://www.w3.org/2000/svg" xmlns:xlink="http://www.w3.org/1999/xlink" x="0px" y="0px"
	 viewBox="-95 234 420 325" style="enable-background:new -95 234 420 325;" xml:space="preserve">
<style type="text/css">
	.st0{fill:#FFFFFF;}
</style>
<g id="WEB_DESIGN">
	<g>
		<path class="st0" d="M21,330h232v-25H21V330z M183,310h55v14h-55V310z M38,315h23v4H38V315z"/>
		<rect x="41" y="395" class="st0" width="21" height="23"/>
		<path class="st0" d="M66,376h168v-23H66V376z M220,358c3.3,0,6,2.7,6,6s-2.7,6-6,6s-6-2.7-6-6S216.7,358,220,358z M130,362h16v4
			h-16V362z M84,362h38v4H84V362z"/>
		<circle class="st0" cx="220" cy="406" r="2"/>
		<path class="st0" d="M253,293H-23v8h276V293z M-18,299c-1.1,0-2-0.9-2-2s0.9-2,2-2s2,0.9,2,2S-16.9,299-18,299z M-10,299
			c-1.1,0-2-0.9-2-2s0.9-2,2-2s2,0.9,2,2S-8.9,299-10,299z M-2,299c-1.1,0-2-0.9-2-2s0.9-2,2-2s2,0.9,2,2S-0.9,299-2,299z"/>
		<path class="st0" d="M66,418h168v-23H66V418z M220,400c3.3,0,6,2.7,6,6s-2.7,6-6,6s-6-2.7-6-6S216.7,400,220,400z M130,404h16v4
			h-16V404z M84,404h38v4H84V404z"/>
		<rect x="187" y="314" class="st0" width="47" height="6"/>
		<path class="st0" d="M21,437h232V334H21V437z M37,349h201v31H37V349z M37,391h201v31H37V391z"/>
		<path class="st0" d="M160,519v-39H70v39h37v4H45v-4h21v-39H-38c-3.3,0-6-2.7-6-6V277c0-3.3,2.7-6,6-6h151v-37H-95v325h208v-40H160
			z"/>
		<path class="st0" d="M17,305h-40v132h40V305z M8,402h-22v-4H8V402z M8,387h-22v-4H8V387z M8,372h-22v-4H8V372z M8,357h-22v-4H8
			V357z M-3,336c-6.6,0-12-5.4-12-12s5.4-12,12-12s12,5.4,12,12S3.6,336-3,336z"/>
		<circle class="st0" cx="220" cy="364" r="2"/>
		<path class="st0" d="M-3,316c-4.4,0-8,3.6-8,8s3.6,8,8,8s8-3.6,8-8S1.4,316-3,316z"/>
		<path class="st0" d="M117,234v41H-38c-1.1,0-2,0.9-2,2v197c0,1.1,0.9,2,2,2h306c1.1,0,2-0.9,2-2V277c0-1.1-0.9-2-2-2H126v-4h142
			c3.3,0,6,2.7,6,6v197c0,3.3-2.7,6-6,6H164v39h21v4h-68v36h208V234H117z M257,289v152H-27V289H257z"/>
		<rect x="41" y="353" class="st0" width="21" height="23"/>
	</g>
</g>
<g id="APP_DESIGN">
</g>
<g id="ECOMMERCE">
</g>
<g id="WORDPRESS">
</g>
</svg>
